<svg width="17" height="16" viewBox="0 0 17 16" fill="none" xmlns="http://www.w3.org/2000/svg">
<path fill-rule="evenodd" clip-rule="evenodd" d="M3.56612 10.7058C4.1322 11.0861 4.85856 11.5182 5.77056 12.0606L9.18389 14.091C11.4242 15.4235 12.5443 16.0898 13.4634 15.9903C14.2652 15.9035 14.9935 15.4702 15.4673 14.7983C16.0106 14.028 16.0106 12.6954 16.0106 10.0303L16.0106 5.96968C16.0106 3.30457 16.0106 1.97201 15.4673 1.20168C14.9935 0.529763 14.2652 0.0965463 13.4634 0.00973056C12.5443 -0.0897996 11.4242 0.576476 9.18392 1.90902L9.1839 1.90903L5.77056 3.93936C4.85857 4.48183 4.1322 4.91389 3.56612 5.29421L3.56612 1.77778C3.56612 0.795941 2.77018 3.06486e-06 1.78834 3.15069e-06C0.806497 3.23653e-06 0.0105597 0.795941 0.0105597 1.77778L0.0105608 14.2222C0.0105609 15.2041 0.806499 16 1.78834 16C2.77018 16 3.56612 15.2041 3.56612 14.2222L3.56612 10.7058Z" fill="#787878"/>
</svg>
