<svg width="25" height="24" viewBox="0 0 25 24" fill="none" xmlns="http://www.w3.org/2000/svg">
<path d="M11 17C10.8684 17.0008 10.7379 16.9755 10.6161 16.9258C10.4943 16.876 10.3834 16.8027 10.29 16.71C10.1963 16.617 10.1219 16.5064 10.0711 16.3846C10.0203 16.2627 9.9942 16.132 9.9942 16C9.9942 15.868 10.0203 15.7373 10.0711 15.6154C10.1219 15.4936 10.1963 15.383 10.29 15.29L13.6 12L10.42 8.69C10.2337 8.50263 10.1292 8.24918 10.1292 7.985C10.1292 7.72081 10.2337 7.46736 10.42 7.28C10.513 7.18627 10.6236 7.11187 10.7454 7.06111C10.8673 7.01034 10.998 6.9842 11.13 6.9842C11.262 6.9842 11.3927 7.01034 11.5146 7.06111C11.6364 7.11187 11.747 7.18627 11.84 7.28L15.7 11.28C15.8832 11.4669 15.9859 11.7182 15.9859 11.98C15.9859 12.2417 15.8832 12.4931 15.7 12.68L11.7 16.68C11.6102 16.7769 11.5022 16.8551 11.382 16.91C11.2619 16.965 11.132 16.9955 11 17Z" fill="url(#paint0_linear)"/>
<defs>
<linearGradient id="paint0_linear" x1="12.99" y1="6.9842" x2="12.99" y2="17" gradientUnits="userSpaceOnUse">
<stop stop-color="#AE02FF"/>
<stop offset="1" stop-color="#915EFF"/>
</linearGradient>
</defs>
</svg>
