<svg width="25" height="24" viewBox="0 0 25 24" fill="none" xmlns="http://www.w3.org/2000/svg">
<path d="M12.1666 2C10.1888 2 8.25542 2.58649 6.61093 3.6853C4.96644 4.78412 3.68471 6.3459 2.92784 8.17317C2.17096 10.0004 1.97293 12.0111 2.35878 13.9509C2.74463 15.8907 3.69704 17.6725 5.09556 19.0711C6.49409 20.4696 8.27592 21.422 10.2157 21.8079C12.1555 22.1937 14.1662 21.9957 15.9935 21.2388C17.8207 20.4819 19.3825 19.2002 20.4813 17.5557C21.5801 15.9112 22.1666 13.9778 22.1666 12C22.1666 10.6868 21.908 9.38642 21.4054 8.17317C20.9029 6.95991 20.1663 5.85752 19.2377 4.92893C18.3091 4.00035 17.2067 3.26375 15.9935 2.7612C14.7802 2.25866 13.4798 2 12.1666 2ZM12.1666 20C10.5844 20 9.03766 19.5308 7.72207 18.6518C6.40648 17.7727 5.3811 16.5233 4.77559 15.0615C4.17009 13.5997 4.01167 11.9911 4.32035 10.4393C4.62903 8.88743 5.39096 7.46197 6.50978 6.34315C7.6286 5.22433 9.05406 4.4624 10.6059 4.15372C12.1578 3.84504 13.7663 4.00346 15.2281 4.60896C16.6899 5.21447 17.9393 6.23984 18.8184 7.55544C19.6974 8.87103 20.1666 10.4177 20.1666 12C20.1666 14.1217 19.3238 16.1566 17.8235 17.6569C16.3232 19.1571 14.2884 20 12.1666 20Z" fill="#4E4D54"/>
<path d="M15.8466 8.31999C15.7097 8.17247 15.5315 8.06968 15.3352 8.02508C15.139 7.98048 14.9338 7.99613 14.7466 8.06999L10.5366 9.76999C10.4128 9.82028 10.3004 9.89486 10.2059 9.98933C10.1115 10.0838 10.0369 10.1962 9.9866 10.32L8.2366 14.58C8.17452 14.7476 8.15848 14.9287 8.19013 15.1046C8.22179 15.2804 8.29999 15.4446 8.4166 15.58H8.4666C8.54718 15.6953 8.65117 15.7923 8.7718 15.8647C8.89242 15.937 9.02695 15.9832 9.1666 16C9.29662 16.0016 9.42569 15.9778 9.5466 15.93L13.7566 14.23C13.8804 14.1797 13.9928 14.1051 14.0873 14.0107C14.1817 13.9162 14.2563 13.8038 14.3066 13.68L16.0566 9.41999C16.1354 9.23662 16.1574 9.03387 16.12 8.83784C16.0826 8.64181 15.9874 8.46146 15.8466 8.31999ZM10.9666 13.21L11.6766 11.47L13.3666 10.79L12.6566 12.53L10.9666 13.21Z" fill="#4E4D54"/>
</svg>
