<svg width="25" height="24" viewBox="0 0 25 24" fill="none" xmlns="http://www.w3.org/2000/svg">
<path d="M12.3334 2C9.63328 2.05257 7.06424 3.17378 5.18963 5.11775C3.31501 7.06173 2.28784 9.66979 2.33336 12.37V17C2.33336 17.7911 2.56796 18.5645 3.00748 19.2223C3.44701 19.8801 4.07172 20.3928 4.80263 20.6955C5.53353 20.9983 6.3378 21.0775 7.11372 20.9231C7.88965 20.7688 8.60238 20.3878 9.16179 19.8284C9.7212 19.269 10.1022 18.5563 10.2565 17.7804C10.4108 17.0044 10.3316 16.2002 10.0289 15.4693C9.72613 14.7384 9.21344 14.1136 8.55564 13.6741C7.89784 13.2346 7.12449 13 6.33336 13C5.6284 13.003 4.93735 13.1964 4.33336 13.56V12.37C4.28773 10.2002 5.10416 8.10075 6.60373 6.53183C8.1033 4.96291 10.1637 4.05245 12.3334 4C14.503 4.05245 16.5634 4.96291 18.063 6.53183C19.5626 8.10075 20.379 10.2002 20.3334 12.37V13.56C19.7294 13.1964 19.0383 13.003 18.3334 13C17.5422 13 16.7689 13.2346 16.1111 13.6741C15.4533 14.1136 14.9406 14.7384 14.6378 15.4693C14.3351 16.2002 14.2559 17.0044 14.4102 17.7804C14.5646 18.5563 14.9455 19.269 15.5049 19.8284C16.0643 20.3878 16.7771 20.7688 17.553 20.9231C18.3289 21.0775 19.1332 20.9983 19.8641 20.6955C20.595 20.3928 21.2197 19.8801 21.6592 19.2223C22.0988 18.5645 22.3334 17.7911 22.3334 17V12.37C22.3789 9.66979 21.3517 7.06173 19.4771 5.11775C17.6025 3.17378 15.0334 2.05257 12.3334 2ZM6.33336 15C6.72892 15 7.1156 15.1173 7.4445 15.3371C7.7734 15.5568 8.02974 15.8692 8.18112 16.2346C8.33249 16.6001 8.3721 17.0022 8.29493 17.3902C8.21776 17.7781 8.02728 18.1345 7.74757 18.4142C7.46787 18.6939 7.1115 18.8844 6.72354 18.9616C6.33558 19.0387 5.93345 18.9991 5.56799 18.8478C5.20254 18.6964 4.89018 18.44 4.67042 18.1111C4.45066 17.7822 4.33336 17.3956 4.33336 17C4.33336 16.4696 4.54407 15.9609 4.91915 15.5858C5.29422 15.2107 5.80293 15 6.33336 15ZM18.3334 19C17.9378 19 17.5511 18.8827 17.2222 18.6629C16.8933 18.4432 16.637 18.1308 16.4856 17.7654C16.3342 17.3999 16.2946 16.9978 16.3718 16.6098C16.449 16.2219 16.6394 15.8655 16.9191 15.5858C17.1989 15.3061 17.5552 15.1156 17.9432 15.0384C18.3311 14.9613 18.7333 15.0009 19.0987 15.1522C19.4642 15.3036 19.7765 15.56 19.9963 15.8889C20.2161 16.2178 20.3334 16.6044 20.3334 17C20.3334 17.5304 20.1226 18.0391 19.7476 18.4142C19.3725 18.7893 18.8638 19 18.3334 19Z" fill="#4E4D54"/>
</svg>
