<svg width="17" height="16" viewBox="0 0 17 16" fill="none" xmlns="http://www.w3.org/2000/svg">
<path fill-rule="evenodd" clip-rule="evenodd" d="M13.4339 5.2942C12.8678 4.91388 12.1414 4.48183 11.2294 3.93936L7.81611 1.90903C5.57584 0.576477 4.45571 -0.0898009 3.53656 0.00972926C2.73484 0.0965437 2.00652 0.529762 1.53268 1.20168C0.989441 1.97201 0.989441 3.30456 0.989441 5.96967V10.0303C0.989441 12.6954 0.989441 14.028 1.53268 14.7983C2.00652 15.4702 2.73484 15.9035 3.53656 15.9903C4.45571 16.0898 5.57584 15.4235 7.81608 14.091L7.8161 14.091L11.2294 12.0606C12.1414 11.5182 12.8678 11.0861 13.4339 10.7058V14.2222C13.4339 15.2041 14.2298 16 15.2117 16C16.1935 16 16.9894 15.2041 16.9894 14.2222V1.77778C16.9894 0.795939 16.1935 5.02107e-07 15.2117 5.02107e-07C14.2298 5.02107e-07 13.4339 0.795939 13.4339 1.77778V5.2942Z" fill="#787878"/>
</svg>
