<svg width="15" height="16" viewBox="0 0 15 16" fill="none" xmlns="http://www.w3.org/2000/svg">
<path d="M10.8973 3.93936C13.2053 5.27191 14.3594 5.93819 14.7466 6.80805C15.0845 7.56678 15.0845 8.43322 14.7466 9.19195C14.3594 10.0618 13.2053 10.7281 10.8973 12.0606L7.38065 14.091C5.0726 15.4235 3.91857 16.0898 2.97161 15.9903C2.14562 15.9035 1.39527 15.4702 0.90709 14.7983C0.34741 14.028 0.347411 12.6954 0.347411 10.0303L0.347411 5.96967C0.347411 3.30456 0.347411 1.97201 0.90709 1.20168C1.39527 0.529761 2.14562 0.0965432 2.97161 0.00972874C3.91857 -0.0898015 5.0726 0.576476 7.38065 1.90903L10.8973 3.93936Z" fill="white"/>
</svg>
