<svg width="25" height="24" viewBox="0 0 25 24" fill="none" xmlns="http://www.w3.org/2000/svg">
<path d="M18.8994 5H6.89944L8.19944 3.71C8.38774 3.5217 8.49353 3.2663 8.49353 3C8.49353 2.7337 8.38774 2.47831 8.19944 2.29C8.01114 2.1017 7.75574 1.99591 7.48944 1.99591C7.22314 1.99591 6.96774 2.1017 6.77944 2.29L3.77944 5.29C3.68571 5.38297 3.61132 5.49357 3.56055 5.61543C3.50978 5.73728 3.48364 5.86799 3.48364 6C3.48364 6.13201 3.50978 6.26272 3.56055 6.38458C3.61132 6.50644 3.68571 6.61704 3.77944 6.71L6.77944 9.71C6.8724 9.80373 6.983 9.87812 7.10486 9.92889C7.22672 9.97966 7.35743 10.0058 7.48944 10.0058C7.62145 10.0058 7.75216 9.97966 7.87402 9.92889C7.99588 9.87812 8.10648 9.80373 8.19944 9.71C8.29317 9.61704 8.36756 9.50644 8.41833 9.38458C8.4691 9.26272 8.49524 9.13201 8.49524 9C8.49524 8.86799 8.4691 8.73728 8.41833 8.61543C8.36756 8.49357 8.29317 8.38297 8.19944 8.29L6.89944 7H18.8994C19.1043 6.99602 19.308 7.03245 19.4988 7.10719C19.6895 7.18194 19.8637 7.29354 20.0114 7.43562C20.159 7.5777 20.2773 7.74748 20.3593 7.93525C20.4413 8.12303 20.4855 8.32513 20.4894 8.53V11C20.4894 11.2652 20.5948 11.5196 20.7823 11.7071C20.9699 11.8946 21.2242 12 21.4894 12C21.7547 12 22.009 11.8946 22.1965 11.7071C22.3841 11.5196 22.4894 11.2652 22.4894 11V8.53C22.4855 8.06249 22.3895 7.60033 22.207 7.16991C22.0245 6.73949 21.7589 6.34925 21.4256 6.02145C21.0922 5.69366 20.6975 5.43474 20.2641 5.25948C19.8307 5.08422 19.367 4.99605 18.8994 5Z" fill="#787878"/>
<path d="M19.1994 14.29C19.0111 14.1017 18.7557 13.9959 18.4894 13.9959C18.2231 13.9959 17.9677 14.1017 17.7794 14.29C17.5911 14.4783 17.4853 14.7337 17.4853 15C17.4853 15.2663 17.5911 15.5217 17.7794 15.71L19.0794 17H7.07944C6.87457 17.004 6.67092 16.9676 6.48013 16.8928C6.28934 16.8181 6.11514 16.7065 5.96748 16.5644C5.81983 16.4223 5.70162 16.2525 5.61959 16.0647C5.53757 15.877 5.49334 15.6749 5.48944 15.47V13C5.48944 12.7348 5.38408 12.4804 5.19655 12.2929C5.00901 12.1054 4.75466 12 4.48944 12C4.22422 12 3.96987 12.1054 3.78233 12.2929C3.5948 12.4804 3.48944 12.7348 3.48944 13V15.47C3.49336 15.9375 3.58934 16.3997 3.77188 16.8301C3.95442 17.2605 4.21995 17.6508 4.55332 17.9785C4.88668 18.3063 5.28135 18.5653 5.71479 18.7405C6.14822 18.9158 6.61193 19.004 7.07944 19H19.0794L17.7794 20.29C17.6857 20.383 17.6113 20.4936 17.5605 20.6154C17.5098 20.7373 17.4836 20.868 17.4836 21C17.4836 21.132 17.5098 21.2627 17.5605 21.3846C17.6113 21.5064 17.6857 21.617 17.7794 21.71C17.8724 21.8037 17.983 21.8781 18.1049 21.9289C18.2267 21.9797 18.3574 22.0058 18.4894 22.0058C18.6215 22.0058 18.7522 21.9797 18.874 21.9289C18.9959 21.8781 19.1065 21.8037 19.1994 21.71L22.1994 18.71C22.2932 18.617 22.3676 18.5064 22.4183 18.3846C22.4691 18.2627 22.4952 18.132 22.4952 18C22.4952 17.868 22.4691 17.7373 22.4183 17.6154C22.3676 17.4936 22.2932 17.383 22.1994 17.29L19.1994 14.29Z" fill="#787878"/>
</svg>
