<svg width="24" height="25" viewBox="0 0 24 25" fill="none" xmlns="http://www.w3.org/2000/svg">
<path d="M12.94 22.5H11.05C10.6044 22.5 10.1771 22.323 9.86206 22.0079C9.547 21.6929 9.37 21.2656 9.37 20.82V19.73C9.36458 19.6658 9.34103 19.6044 9.30208 19.5531C9.26313 19.5017 9.21038 19.4625 9.15 19.44C9.08881 19.4008 9.01767 19.38 8.945 19.38C8.87233 19.38 8.80119 19.4008 8.74 19.44L8 20.24C7.84478 20.3963 7.66016 20.5204 7.45678 20.605C7.25341 20.6897 7.03529 20.7333 6.815 20.7333C6.59471 20.7333 6.37659 20.6897 6.17322 20.605C5.96984 20.5204 5.78522 20.3963 5.63 20.24L4.26 18.9C4.10142 18.7451 3.97547 18.56 3.8896 18.3556C3.80372 18.1512 3.75966 17.9317 3.76 17.71C3.76064 17.2565 3.94034 16.8217 4.26 16.5L5 15.76C5.03573 15.7049 5.05474 15.6407 5.05474 15.575C5.05474 15.5093 5.03573 15.4451 5 15.39C4.94 15.24 4.84 15.13 4.7 15.13H3.68C3.23352 15.1274 2.80623 14.9481 2.49145 14.6315C2.17667 14.3148 1.99999 13.8865 2 13.44V11.55C2 11.1044 2.177 10.6771 2.49206 10.3621C2.80712 10.047 3.23444 9.87 3.68 9.87H4.77C4.83422 9.86458 4.89558 9.84103 4.94692 9.80208C4.99827 9.76313 5.03748 9.71038 5.06 9.65C5.0992 9.58881 5.12004 9.51767 5.12004 9.445C5.12004 9.37233 5.0992 9.30119 5.06 9.24L4.26 8.5C4.10368 8.34478 3.97962 8.16016 3.89497 7.95678C3.81031 7.75341 3.76672 7.53529 3.76672 7.315C3.76672 7.09471 3.81031 6.87659 3.89497 6.67322C3.97962 6.46984 4.10368 6.28522 4.26 6.13L5.6 4.76C5.7534 4.60217 5.93682 4.47663 6.13947 4.39076C6.34212 4.30489 6.55991 4.26043 6.78 4.26C7.00625 4.25901 7.23046 4.30266 7.43981 4.38846C7.64916 4.47426 7.83952 4.60052 8 4.76L8.74 5.5C8.79509 5.53573 8.85934 5.55474 8.925 5.55474C8.99066 5.55474 9.05491 5.53573 9.11 5.5C9.26 5.44 9.37 5.34 9.37 5.2V4.18C9.37264 3.73352 9.55186 3.30623 9.86851 2.99145C10.1852 2.67667 10.6135 2.49999 11.06 2.5H13C13.4456 2.5 13.8729 2.677 14.1879 2.99206C14.503 3.30712 14.68 3.73444 14.68 4.18V5.27C14.6854 5.33422 14.709 5.39558 14.7479 5.44692C14.7869 5.49827 14.8396 5.53748 14.9 5.56C14.9612 5.5992 15.0323 5.62004 15.105 5.62004C15.1777 5.62004 15.2488 5.5992 15.31 5.56L16 4.76C16.1552 4.60368 16.3398 4.47962 16.5432 4.39497C16.7466 4.31031 16.9647 4.26672 17.185 4.26672C17.4053 4.26672 17.6234 4.31031 17.8268 4.39497C18.0302 4.47962 18.2148 4.60368 18.37 4.76L19.74 6.1C19.8981 6.25526 20.0238 6.44043 20.1096 6.64474C20.1955 6.84905 20.2398 7.06839 20.24 7.29C20.2448 7.51529 20.2029 7.73914 20.1168 7.94741C20.0308 8.15567 19.9025 8.34383 19.74 8.5L19 9.24C18.9643 9.29509 18.9453 9.35934 18.9453 9.425C18.9453 9.49066 18.9643 9.55491 19 9.61C19.06 9.76 19.16 9.87 19.3 9.87H20.39C20.8242 9.89058 21.2338 10.0777 21.5336 10.3924C21.8335 10.7071 22.0005 11.1253 22 11.56V13.5C22 13.9456 21.823 14.3729 21.5079 14.6879C21.1929 15.003 20.7656 15.18 20.32 15.18H19.23C19.1658 15.1854 19.1044 15.209 19.0531 15.2479C19.0017 15.2869 18.9625 15.3396 18.94 15.4C18.9043 15.4551 18.8853 15.5193 18.8853 15.585C18.8853 15.6507 18.9043 15.7149 18.94 15.77L19.71 16.54C19.8663 16.6952 19.9904 16.8798 20.075 17.0832C20.1597 17.2866 20.2033 17.5047 20.2033 17.725C20.2033 17.9453 20.1597 18.1634 20.075 18.3668C19.9904 18.5702 19.8663 18.7548 19.71 18.91L18.4 20.24C18.2466 20.3978 18.0632 20.5234 17.8605 20.6092C17.6579 20.6951 17.4401 20.7396 17.22 20.74C16.7735 20.7341 16.3467 20.5548 16.03 20.24L15.26 19.5C15.2049 19.4643 15.1407 19.4453 15.075 19.4453C15.0093 19.4453 14.9451 19.4643 14.89 19.5C14.74 19.56 14.63 19.66 14.63 19.8V20.89C14.6094 21.3242 14.4223 21.7338 14.1076 22.0336C13.7929 22.3335 13.3747 22.5005 12.94 22.5ZM11.37 20.5H12.63V19.73C12.6343 19.2689 12.7753 18.8193 13.0352 18.4384C13.2951 18.0574 13.6622 17.7622 14.09 17.59C14.5196 17.4022 14.9953 17.3467 15.4566 17.4304C15.9179 17.5141 16.3438 17.7333 16.68 18.06L17.22 18.6L18.1 17.72L17.56 17.17C17.2353 16.8389 17.0164 16.4188 16.9309 15.963C16.8454 15.5072 16.8973 15.0362 17.08 14.61C17.2537 14.1841 17.5497 13.8191 17.9305 13.561C18.3113 13.303 18.76 13.1634 19.22 13.16H20V11.87H19.23C18.7689 11.8657 18.3193 11.7247 17.9384 11.4648C17.5574 11.2049 17.2622 10.8378 17.09 10.41C16.9022 9.98043 16.8467 9.50467 16.9304 9.04339C17.0141 8.5821 17.2333 8.1562 17.56 7.82L18.1 7.28L17.22 6.4L16.67 6.94C16.3337 7.24716 15.9167 7.45185 15.468 7.52995C15.0193 7.60806 14.5576 7.55633 14.1373 7.38086C13.717 7.20539 13.3556 6.91348 13.0957 6.53952C12.8357 6.16555 12.688 5.72509 12.67 5.27V4.5H11.37V5.27C11.3657 5.73115 11.2247 6.18066 10.9648 6.56161C10.7049 6.94257 10.3378 7.23782 9.91 7.41C9.48043 7.59777 9.00467 7.65335 8.54339 7.56964C8.0821 7.48593 7.6562 7.26673 7.32 6.94L6.78 6.4L5.9 7.28L6.44 7.83C6.74716 8.16628 6.95185 8.58331 7.02995 9.03201C7.10806 9.48071 7.05633 9.94238 6.88086 10.3627C6.70539 10.783 6.41348 11.1444 6.03952 11.4043C5.66555 11.6643 5.22509 11.812 4.77 11.83H4V13.09H4.77C5.23115 13.0943 5.68066 13.2353 6.06161 13.4952C6.44257 13.7551 6.73782 14.1222 6.91 14.55C7.09777 14.9796 7.15335 15.4553 7.06964 15.9166C6.98593 16.3779 6.76673 16.8038 6.44 17.14L5.9 17.68L6.78 18.56L7.33 18.02C7.66628 17.7128 8.08331 17.5082 8.53201 17.43C8.98071 17.3519 9.44238 17.4037 9.86267 17.5791C10.283 17.7546 10.6444 18.0465 10.9043 18.4205C11.1643 18.7945 11.312 19.2349 11.33 19.69L11.37 20.5Z" fill="#787878"/>
<path d="M12 16C11.3078 16 10.6311 15.7947 10.0555 15.4101C9.47993 15.0256 9.03133 14.4789 8.76642 13.8394C8.50152 13.1999 8.4322 12.4961 8.56725 11.8172C8.7023 11.1383 9.03564 10.5146 9.52513 10.0251C10.0146 9.53564 10.6383 9.2023 11.3172 9.06725C11.9961 8.9322 12.6999 9.00152 13.3394 9.26642C13.9789 9.53133 14.5256 9.97993 14.9101 10.5555C15.2947 11.1311 15.5 11.8078 15.5 12.5C15.5 13.4283 15.1313 14.3185 14.4749 14.9749C13.8185 15.6313 12.9283 16 12 16ZM12 11C11.7033 11 11.4133 11.088 11.1666 11.2528C10.92 11.4176 10.7277 11.6519 10.6142 11.926C10.5007 12.2001 10.4709 12.5017 10.5288 12.7926C10.5867 13.0836 10.7296 13.3509 10.9393 13.5607C11.1491 13.7704 11.4164 13.9133 11.7074 13.9712C11.9983 14.0291 12.2999 13.9994 12.574 13.8858C12.8481 13.7723 13.0824 13.58 13.2472 13.3334C13.412 13.0867 13.5 12.7967 13.5 12.5C13.5 12.1022 13.342 11.7206 13.0607 11.4393C12.7794 11.158 12.3978 11 12 11Z" fill="#787878"/>
</svg>
