<svg width="25" height="24" viewBox="0 0 25 24" fill="none" xmlns="http://www.w3.org/2000/svg">
<path d="M19.6994 14.29C19.5111 14.1017 19.2557 13.9959 18.9894 13.9959C18.7231 13.9959 18.4677 14.1017 18.2794 14.29C18.0911 14.4783 17.9853 14.7337 17.9853 15C17.9853 15.2663 18.0911 15.5217 18.2794 15.71L18.5694 16H16.9894C15.9286 16 14.9112 15.5786 14.161 14.8284C13.4109 14.0783 12.9894 13.0609 12.9894 12C12.9894 10.9391 13.4109 9.92172 14.161 9.17158C14.9112 8.42143 15.9286 8 16.9894 8H18.5794L18.2794 8.29C18.1857 8.38297 18.1113 8.49357 18.0605 8.61543C18.0098 8.73728 17.9836 8.86799 17.9836 9C17.9836 9.13201 18.0098 9.26272 18.0605 9.38458C18.1113 9.50644 18.1857 9.61704 18.2794 9.71C18.3729 9.80268 18.4837 9.87601 18.6055 9.92577C18.7274 9.97554 18.8578 10.0008 18.9894 10C19.121 10.0008 19.2515 9.97554 19.3733 9.92577C19.4952 9.87601 19.606 9.80268 19.6994 9.71L21.6994 7.71C21.7921 7.61656 21.8654 7.50575 21.9152 7.38391C21.965 7.26207 21.9902 7.13161 21.9894 7C21.9902 6.8684 21.965 6.73793 21.9152 6.6161C21.8654 6.49426 21.7921 6.38344 21.6994 6.29L19.6994 4.29C19.6062 4.19676 19.4955 4.1228 19.3737 4.07234C19.2519 4.02188 19.1213 3.99591 18.9894 3.99591C18.7231 3.99591 18.4677 4.1017 18.2794 4.29C18.0911 4.47831 17.9853 4.7337 17.9853 5C17.9853 5.2663 18.0911 5.5217 18.2794 5.71L18.5694 6H16.9894C15.9987 6.00073 15.0236 6.24677 14.1511 6.71616C13.2787 7.18555 12.536 7.86368 11.9894 8.69C11.4429 7.86368 10.7002 7.18555 9.82776 6.71616C8.95529 6.24677 7.98016 6.00073 6.98944 6H4.98944C4.72422 6 4.46987 6.10536 4.28233 6.2929C4.0948 6.48043 3.98944 6.73479 3.98944 7C3.98944 7.26522 4.0948 7.51957 4.28233 7.70711C4.46987 7.89465 4.72422 8 4.98944 8H6.98944C8.05031 8 9.06772 8.42143 9.81787 9.17158C10.568 9.92172 10.9894 10.9391 10.9894 12C10.9894 13.0609 10.568 14.0783 9.81787 14.8284C9.06772 15.5786 8.05031 16 6.98944 16H4.98944C4.72422 16 4.46987 16.1054 4.28233 16.2929C4.0948 16.4804 3.98944 16.7348 3.98944 17C3.98944 17.2652 4.0948 17.5196 4.28233 17.7071C4.46987 17.8946 4.72422 18 4.98944 18H6.98944C7.98016 17.9993 8.95529 17.7532 9.82776 17.2838C10.7002 16.8145 11.4429 16.1363 11.9894 15.31C12.536 16.1363 13.2787 16.8145 14.1511 17.2838C15.0236 17.7532 15.9987 17.9993 16.9894 18H18.5794L18.2794 18.29C18.1857 18.383 18.1113 18.4936 18.0605 18.6154C18.0098 18.7373 17.9836 18.868 17.9836 19C17.9836 19.132 18.0098 19.2627 18.0605 19.3846C18.1113 19.5064 18.1857 19.617 18.2794 19.71C18.3729 19.8027 18.4837 19.876 18.6055 19.9258C18.7274 19.9755 18.8578 20.0008 18.9894 20C19.121 20.0008 19.2515 19.9755 19.3733 19.9258C19.4952 19.876 19.606 19.8027 19.6994 19.71L21.6994 17.71C21.7921 17.6166 21.8654 17.5057 21.9152 17.3839C21.965 17.2621 21.9902 17.1316 21.9894 17C21.9902 16.8684 21.965 16.7379 21.9152 16.6161C21.8654 16.4943 21.7921 16.3834 21.6994 16.29L19.6994 14.29Z" fill="#787878"/>
</svg>
